<?xml version="1.0" encoding="UTF-8"?>
<svg version="1.1" xmlns="http://www.w3.org/2000/svg" width="787" height="961">
<path d="M0 0 C259.38 0 518.76 0 786 0 C786 316.8 786 633.6 786 960 C526.62 960 267.24 960 0 960 C0 643.2 0 326.4 0 0 Z M3 3 C3 4.98 3 6.96 3 9 C5.02054804 7.35830472 7.02043058 5.69088222 9 4 C9 3.67 9 3.34 9 3 C7.02 3 5.04 3 3 3 Z M475 3 C475 3.33 475 3.66 475 4 C475.95962646 4.15033691 476.91925293 4.30067383 477.90795898 4.45556641 C497.47317813 7.53861535 516.86463116 10.79773474 536 16 C537.08007324 16.29100586 538.16014648 16.58201172 539.27294922 16.88183594 C587.46763559 30.04293365 632.57626838 52.68916167 670 86 C670.52223145 86.46051758 671.04446289 86.92103516 671.58251953 87.39550781 C719.43619203 129.77396498 746.73254255 186.98623566 759 249 C759.16870605 249.84014648 759.33741211 250.68029297 759.51123047 251.54589844 C774.46485123 328.06851751 757.9981689 414.30423924 714.6640625 479.125 C710.96089598 484.56093874 707.05521641 489.82041675 703 495 C702.00033203 496.28970703 702.00033203 496.28970703 700.98046875 497.60546875 C696.80618365 502.9159498 692.40052777 507.93905866 687.78515625 512.87109375 C685.80778567 514.96456381 685.80778567 514.96456381 685 518 C684.34 518 683.68 518 683 518 C681.6962889 519.32512878 681.6962889 519.32512878 680.375 521.0625 C677.62172924 524.36905962 674.70897762 527.16329065 671.4296875 529.94140625 C669.60299246 531.48910446 667.79945054 533.06419462 666.0078125 534.65234375 C645.86392831 552.44531255 623.25586473 566.49757704 599 578 C600.55983717 582.12367947 602.47157904 586.02158277 604.4921875 589.93359375 C605.00486176 590.93172844 605.00486176 590.93172844 605.52789307 591.95002747 C606.64084454 594.11394806 607.7576362 596.27585483 608.875 598.4375 C609.25815369 599.18052368 609.64130737 599.92354736 610.03607178 600.68908691 C615.0802776 610.46711826 620.21985385 620.18126788 625.54052734 629.81225586 C629.66380963 637.30524538 633.59159835 644.89371059 637.5 652.5 C642.37681167 661.99035271 647.36021649 671.40899784 652.51171875 680.75390625 C657.08816077 689.08694641 661.4401735 697.53086355 665.79370117 705.98193359 C669.39629503 712.95741078 673.08251594 719.87612263 676.875 726.75 C682.11359564 736.25026399 687.08898157 745.87454174 692.03945923 755.52667236 C696.72843797 764.66373732 701.52846479 773.72318212 706.4921875 782.71484375 C710.62910845 790.24158672 714.57500163 797.86157082 718.5 805.5 C722.89758248 814.05794464 727.35251604 822.5740738 732 831 C736.64748517 839.42592839 741.10236215 847.94208223 745.5 856.5 C750.37054265 865.97800377 755.3409494 875.38825723 760.49414062 884.71655273 C763.30943542 889.83470928 766.04617 894.98753773 768.71484375 900.18359375 C769.0301857 900.79682495 769.34552765 901.41005615 769.67042542 902.04187012 C771.21587829 905.05061914 772.75340958 908.06292921 774.28149414 911.08056641 C775.11668579 912.71324463 775.11668579 912.71324463 775.96875 914.37890625 C776.45794922 915.3438501 776.94714844 916.30879395 777.45117188 917.30297852 C779.2076449 920.52067699 779.2076449 920.52067699 783 925 C783 620.74 783 316.48 783 3 C681.36 3 579.72 3 475 3 Z M197 153 C197 253.65 197 354.3 197 458 C231.93875 458.061875 266.8775 458.12375 302.875 458.1875 C313.86280762 458.21481201 324.85061523 458.24212402 336.17138672 458.27026367 C346.11427167 458.28030367 346.11427167 458.28030367 356.05715942 458.28633118 C360.44856414 458.28909982 364.83985747 458.30023567 369.23123169 458.31672668 C406.84774421 458.45162432 443.3805109 457.60669492 479 444 C479.6811084 443.73993164 480.3622168 443.47986328 481.06396484 443.21191406 C496.31502592 437.25156156 509.65838402 428.74327555 522 418 C522.70382812 417.42894531 523.40765625 416.85789062 524.1328125 416.26953125 C529.9038426 411.50560248 534.44879772 405.91656296 539 400 C539.58523438 399.25363281 540.17046875 398.50726563 540.7734375 397.73828125 C555.31228481 378.18250775 562.36669469 355.80381909 566 332 C566.1045752 331.32445068 566.20915039 330.64890137 566.31689453 329.95288086 C567.34088401 322.24548244 567.24377608 314.44904053 567.25 306.6875 C567.25067474 305.93122314 567.25134949 305.17494629 567.25204468 304.39575195 C567.23504046 292.37774403 566.67879842 280.76057845 564 269 C563.82839355 268.23880859 563.65678711 267.47761719 563.47998047 266.69335938 C558.44327875 245.17822601 548.74282822 224.54702048 534 208 C533.30390625 207.17242187 532.6078125 206.34484375 531.890625 205.4921875 C503.85865414 172.8564258 458.76780948 157.60842861 417 154 C404.46624432 153.04890163 391.99937379 152.86133019 379.43530273 152.88647461 C377.40073429 152.88678173 375.36616573 152.88664612 373.33159733 152.88610935 C367.93538306 152.88588571 362.53919145 152.89163655 357.14298248 152.89871979 C352.05955441 152.90445987 346.97613156 152.90468535 341.8927002 152.90539551 C327.07429719 152.91062066 312.2558983 152.92458193 297.4375 152.9375 C247.7209375 152.9684375 247.7209375 152.9684375 197 153 Z M197 612 C196.99940291 612.69946416 196.99880582 613.39892833 196.99819064 614.11958838 C196.96229989 655.5717696 196.90566585 697.02387727 196.82207905 738.4759911 C196.81206154 743.45274377 196.80221742 748.42949677 196.79248047 753.40625 C196.7905391 754.39703562 196.78859772 755.38782124 196.78659752 756.40863067 C196.75557297 772.45314146 196.7385956 788.49763795 196.72680578 804.54217309 C196.71439658 821.0042732 196.68690039 837.46629822 196.64538693 853.92835093 C196.62024494 864.08704982 196.60688324 874.24562418 196.60857043 884.40435463 C196.60860017 891.36974843 196.5939807 898.33501532 196.56783572 905.30035967 C196.55318212 909.31955894 196.54499331 913.33849797 196.55419731 917.35771942 C196.56248577 921.03944615 196.55232578 924.72065003 196.52766338 928.40229923 C196.5192945 930.36081299 196.53051661 932.31938043 196.54249835 934.27787542 C196.44388391 944.37756688 194.25393852 949.18257686 188 957 C316.7 957 445.4 957 578 957 C576.02 954.36 574.04 951.72 572 949 C570.86659878 947.0613448 569.78466399 945.09103184 568.7734375 943.0859375 C567.94779297 941.46751953 567.94779297 941.46751953 567.10546875 939.81640625 C566.53441406 938.68074219 565.96335937 937.54507812 565.375 936.375 C564.13695135 933.94318955 562.89294019 931.51445014 561.6484375 929.0859375 C561.33888123 928.48046082 561.02932495 927.87498413 560.71038818 927.25115967 C557.90518084 921.77883327 554.97256495 916.38269855 552 911 C546.90697143 901.75621278 542.04193478 892.40476151 537.20874023 883.02294922 C533.58394376 876.00467323 529.8758418 869.0424637 526.0625 862.125 C521.05463354 853.03814554 516.2736129 843.84354897 511.53201294 834.61627197 C507.4552195 826.68744808 503.30629221 818.80734278 499 811 C494.35251423 802.57407052 489.89766555 794.05790432 485.5 785.5 C480.59914906 775.96329265 475.59250144 766.49731495 470.41796875 757.10546875 C466.09700815 749.23969865 461.96889666 741.27992427 457.85058594 733.30664062 C454.36233268 726.57113314 450.78525701 719.89341555 447.125 713.25 C442.09797391 704.12092061 437.29505345 694.88521471 432.5322876 685.61682129 C428.00449281 676.81085155 423.35779766 668.08191863 418.57177734 659.41308594 C413.61589816 650.39301983 408.92118191 641.24021707 404.25 632.0703125 C403.35667969 630.32621094 403.35667969 630.32621094 402.4453125 628.546875 C401.92469238 627.52432617 401.40407227 626.50177734 400.86767578 625.44824219 C400.25134277 624.31032227 399.63500977 623.17240234 399 622 C398.58498922 620.77025609 398.58498922 620.77025609 398.16159439 619.51566887 C396.81046151 616.28115263 395.61468986 614.36320287 393 612 C386.80629584 610.4691179 380.67186344 610.73568271 374.32666016 610.86474609 C372.39476672 610.86756768 370.46286255 610.86598184 368.53097534 610.86032104 C363.29088774 610.85745199 358.0530897 610.91623414 352.81353426 610.98606062 C347.33636878 611.04858043 341.85915059 611.05444833 336.38168335 611.0663147 C326.01158171 611.09739448 315.64253447 611.17945274 305.27289712 611.27980959 C293.4666022 611.39158962 281.66025687 611.44656735 269.8535645 611.49676394 C245.56845845 611.60128618 221.2842883 611.7771743 197 612 Z M3 951 C3 952.98 3 954.96 3 957 C4.98 957 6.96 957 9 957 C7.35830472 954.97945196 5.69088222 952.97956942 4 951 C3.67 951 3.34 951 3 951 Z M782 951 C780.63823419 952.98075027 779.30406884 954.98079663 778 957 C779.65 957 781.3 957 783 957 C783 955.02 783 953.04 783 951 C782.67 951 782.34 951 782 951 Z " fill="#E4312A" transform="translate(0,0)"/>
<path d="M0 0 C259.38 0 518.76 0 786 0 C786 316.8 786 633.6 786 960 C526.62 960 267.24 960 0 960 C0 643.2 0 326.4 0 0 Z M3 3 C3 317.82 3 632.64 3 957 C260.4 957 517.8 957 783 957 C783 642.18 783 327.36 783 3 C525.6 3 268.2 3 3 3 Z " fill="#FEFBFB" transform="translate(0,0)"/>
</svg>
